<svg width="571" height="79" viewBox="0 0 571 79" fill="none" xmlns="http://www.w3.org/2000/svg">
<path d="M0.724432 1.36363H23.3636L42.5682 48.1932H43.4545L62.6591 1.36363H85.2983V77H67.4972V30.5398H66.8693L48.6989 76.5199H37.3239L19.1534 30.2812H18.5256V77H0.724432V1.36363ZM114.982 1.36363V77H96.701V1.36363H114.982ZM190.831 1.36363V77H175.32L145.22 33.3466H144.74V77H126.459V1.36363H142.192L171.959 44.9432H172.587V1.36363H190.831ZM198.559 1.36363H218.982L234.974 33.0142H235.638L251.63 1.36363H272.053L244.391 51.7386V77H226.221V51.7386L198.559 1.36363ZM279.717 77V1.36363H332.455V16.2102H297.998V31.7216H329.759V46.6051H297.998V62.1534H332.455V77H279.717ZM415.293 39.1818C415.293 47.5038 413.693 54.5578 410.492 60.3438C407.291 66.1297 402.958 70.5246 397.492 73.5284C392.051 76.5322 385.945 78.0341 379.174 78.0341C372.379 78.0341 366.26 76.5199 360.819 73.4915C355.378 70.4631 351.057 66.0682 347.856 60.3068C344.68 54.5208 343.092 47.4792 343.092 39.1818C343.092 30.8598 344.68 23.8059 347.856 18.0199C351.057 12.2339 355.378 7.83901 360.819 4.83523C366.26 1.83144 372.379 0.329543 379.174 0.329543C385.945 0.329543 392.051 1.83144 397.492 4.83523C402.958 7.83901 407.291 12.2339 410.492 18.0199C413.693 23.8059 415.293 30.8598 415.293 39.1818ZM396.606 39.1818C396.606 34.2576 395.904 30.0966 394.501 26.6989C393.122 23.3011 391.128 20.7282 388.518 18.9801C385.933 17.232 382.818 16.358 379.174 16.358C375.555 16.358 372.44 17.232 369.83 18.9801C367.22 20.7282 365.214 23.3011 363.81 26.6989C362.432 30.0966 361.742 34.2576 361.742 39.1818C361.742 44.1061 362.432 48.267 363.81 51.6648C365.214 55.0625 367.22 57.6354 369.83 59.3835C372.44 61.1316 375.555 62.0057 379.174 62.0057C382.818 62.0057 385.933 61.1316 388.518 59.3835C391.128 57.6354 393.122 55.0625 394.501 51.6648C395.904 48.267 396.606 44.1061 396.606 39.1818ZM490.339 1.36363V77H474.827L444.728 33.3466H444.248V77H425.967V1.36363H441.7L471.467 44.9432H472.094V1.36363H490.339ZM551.47 26.071C551.052 24.5199 550.436 23.1534 549.624 21.9716C548.811 20.7652 547.814 19.7434 546.632 18.9062C545.45 18.0691 544.096 17.4413 542.57 17.0227C541.043 16.5795 539.369 16.358 537.547 16.358C533.878 16.358 530.702 17.2443 528.018 19.017C525.359 20.7898 523.304 23.375 521.851 26.7727C520.398 30.1458 519.672 34.2453 519.672 39.071C519.672 43.9214 520.374 48.0578 521.777 51.4801C523.18 54.9025 525.212 57.5123 527.871 59.3097C530.53 61.107 533.755 62.0057 537.547 62.0057C540.895 62.0057 543.727 61.464 546.041 60.3807C548.38 59.2727 550.153 57.7093 551.359 55.6903C552.566 53.6714 553.169 51.2955 553.169 48.5625L556.567 48.9688H538.175V35.6364H570.786V45.6449C570.786 52.4157 569.345 58.214 566.464 63.0398C563.608 67.8655 559.669 71.571 554.646 74.1562C549.648 76.7415 543.899 78.0341 537.399 78.0341C530.185 78.0341 523.845 76.4706 518.379 73.3438C512.913 70.2169 508.654 65.7604 505.601 59.9744C502.548 54.1638 501.021 47.2699 501.021 39.2926C501.021 33.0881 501.945 27.5852 503.791 22.7841C505.638 17.9583 508.211 13.8712 511.51 10.5227C514.834 7.17424 518.675 4.63826 523.033 2.91477C527.415 1.19128 532.13 0.329543 537.178 0.329543C541.56 0.329543 545.635 0.957384 549.402 2.21307C553.194 3.46875 556.542 5.24148 559.447 7.53125C562.377 9.82102 564.753 12.5417 566.575 15.6932C568.397 18.8447 569.53 22.304 569.973 26.071H551.47Z" fill="black"/>
</svg>
